<svg width="11" height="11" viewBox="0 0 11 11" fill="none" xmlns="http://www.w3.org/2000/svg">
<path d="M5.38548 5.51159L8.19948 2.69484C8.24913 2.64495 8.27697 2.57742 8.27693 2.50704C8.27688 2.43666 8.24894 2.36916 8.19923 2.31934C8.09973 2.22034 7.92448 2.21984 7.82398 2.31984L5.01073 5.13659L2.19648 2.31909C2.09648 2.22034 1.92123 2.22084 1.82173 2.31959C1.79704 2.34419 1.77748 2.37346 1.76422 2.40569C1.75096 2.43793 1.74425 2.47248 1.74448 2.50734C1.74448 2.57834 1.77198 2.64484 1.82173 2.69409L4.63573 5.51134L1.82198 8.32884C1.77233 8.37881 1.74452 8.44643 1.74466 8.51687C1.7448 8.58731 1.77288 8.65482 1.82273 8.70459C1.87098 8.75234 1.93923 8.77984 2.00973 8.77984H2.01123C2.08198 8.77959 2.15023 8.75184 2.19748 8.70359L5.01073 5.88684L7.82498 8.70434C7.87473 8.75384 7.94123 8.78134 8.01173 8.78134C8.04659 8.78144 8.08113 8.77465 8.11336 8.76135C8.14558 8.74805 8.17486 8.72852 8.19951 8.70387C8.22416 8.67922 8.2437 8.64994 8.25699 8.61771C8.27029 8.58549 8.27708 8.55095 8.27698 8.51609C8.27698 8.44534 8.24948 8.37859 8.19948 8.32934L5.38548 5.51159Z" fill="black"/>
</svg>
