<svg width="24" height="24" viewBox="0 0 24 24" fill="none" xmlns="http://www.w3.org/2000/svg">
<path d="M19 15V3H23V15H19ZM15 3C15.5304 3 16.0391 3.21071 16.4142 3.58579C16.7893 3.96086 17 4.46957 17 5V15C17 15.55 16.78 16.05 16.41 16.41L9.83 23L8.77 21.94C8.5 21.67 8.33 21.3 8.33 20.88L8.36 20.57L9.31 16H3C2.46957 16 1.96086 15.7893 1.58579 15.4142C1.21071 15.0391 1 14.5304 1 14V12C1 11.74 1.05 11.5 1.14 11.27L4.16 4.22C4.46 3.5 5.17 3 6 3H15ZM15 5H5.97L3 12V14H11.78L10.65 19.32L15 14.97V5Z" fill="black"/>
</svg>
